<svg width="48" height="48" viewBox="0 0 48 48" fill="none" xmlns="http://www.w3.org/2000/svg">
<g clip-path="url(#clip0_1175_3903)">
<path d="M24 48C37.2548 48 48 37.2548 48 24C48 10.7452 37.2548 0 24 0C10.7452 0 0 10.7452 0 24C0 37.2548 10.7452 48 24 48Z" fill="#F1F8FF"/>
<path d="M24 23.0001C24 26.5171 22.991 29.7991 21.247 32.5711M17.807 30.5311L17.861 30.4411C19.2635 28.213 20.0052 25.6328 20 23.0001C20 21.9392 20.4214 20.9218 21.1716 20.1717C21.9217 19.4215 22.9391 19.0001 24 19.0001C25.0609 19.0001 26.0783 19.4215 26.8284 20.1717C27.5786 20.9218 28 21.9392 28 23.0001C28 24.0171 27.93 25.0191 27.797 26.0001M25.679 32.8441C26.2962 31.6126 26.7958 30.3255 27.171 29.0001M31.01 30.1321C31.655 27.8661 32 25.4731 32 23.0001C32.0003 21.5956 31.6309 20.2159 30.9289 18.9995C30.2269 17.7831 29.217 16.7729 28.0008 16.0705C26.7846 15.3682 25.4049 14.9984 24.0004 14.9983C22.596 14.9982 21.2163 15.3679 20 16.0701M15 27.3641C15.64 26.0451 16 24.5641 16 23.0001C16 21.5431 16.39 20.1771 17.07 19.0001" stroke="#1AA3FF" stroke-width="2" stroke-linecap="round" stroke-linejoin="round"/>
</g>
<defs>
<clipPath id="clip0_1175_3903">
<rect width="48" height="48" fill="white"/>
</clipPath>
</defs>
</svg>
