<svg width="48" height="48" viewBox="0 0 48 48" fill="none" xmlns="http://www.w3.org/2000/svg">
<g clip-path="url(#clip0_1175_4155)">
<path d="M24 48C37.2548 48 48 37.2548 48 24C48 10.7452 37.2548 0 24 0C10.7452 0 0 10.7452 0 24C0 37.2548 10.7452 48 24 48Z" fill="#F1F8FF"/>
<path d="M26 22L24 23M24 23L22 22M24 23V25.5M32 19L30 20M32 19L30 18M32 19V21.5M26 16L24 15L22 16M16 19L18 18M16 19L18 20M16 19V21.5M24 33L22 32M24 33L26 32M24 33V30.5M18 30L16 29V26.5M30 30L32 29V26.5" stroke="#1AA3FF" stroke-width="2" stroke-linecap="round" stroke-linejoin="round"/>
</g>
<defs>
<clipPath id="clip0_1175_4155">
<rect width="48" height="48" fill="white"/>
</clipPath>
</defs>
</svg>
